<svg width="25" height="23" viewBox="0 0 25 23" fill="none" xmlns="http://www.w3.org/2000/svg">
<g clip-path="url(#clip0_142_5131)">
<path d="M8.86033 15.2239C9.07097 14.6702 9.4616 14.1908 9.97838 13.8517C10.4952 13.5126 11.1126 13.3305 11.7457 13.3305C12.3787 13.3305 12.9962 13.5126 13.513 13.8517C14.0298 14.1908 14.4204 14.6702 14.631 15.2239H25V17.115H14.631C14.4204 17.6686 14.0298 18.148 13.513 18.4871C12.9962 18.8263 12.3787 19.0084 11.7457 19.0084C11.1126 19.0084 10.4952 18.8263 9.97838 18.4871C9.4616 18.148 9.07097 17.6686 8.86033 17.115H4.60876V15.2239H8.86033ZM14.9777 8.60505C15.1883 8.05141 15.579 7.57198 16.0957 7.23287C16.6125 6.89375 17.23 6.71165 17.863 6.71165C18.4961 6.71165 19.1136 6.89375 19.6304 7.23287C20.1471 7.57198 20.5378 8.05141 20.7484 8.60505H25V10.4961H20.7484C20.5378 11.0498 20.1471 11.5292 19.6304 11.8683C19.1136 12.2074 18.4961 12.3895 17.863 12.3895C17.23 12.3895 16.6125 12.2074 16.0957 11.8683C15.579 11.5292 15.1883 11.0498 14.9777 10.4961H4.60876V8.60505H14.9777ZM8.86033 1.98624C9.07097 1.43259 9.4616 0.953171 9.97838 0.614057C10.4952 0.274942 11.1126 0.0928345 11.7457 0.0928345C12.3787 0.0928345 12.9962 0.274942 13.513 0.614057C14.0298 0.953171 14.4204 1.43259 14.631 1.98624H25V3.87733H14.631C14.4204 4.43098 14.0298 4.9104 13.513 5.24951C12.9962 5.58863 12.3787 5.77074 11.7457 5.77074C11.1126 5.77074 10.4952 5.58863 9.97838 5.24951C9.4616 4.9104 9.07097 4.43098 8.86033 3.87733H4.60876V1.98624H8.86033ZM11.7457 3.87733C12.0161 3.87733 12.2754 3.77771 12.4666 3.60039C12.6578 3.42306 12.7652 3.18256 12.7652 2.93179C12.7652 2.68101 12.6578 2.44051 12.4666 2.26318C12.2754 2.08586 12.0161 1.98624 11.7457 1.98624C11.4753 1.98624 11.216 2.08586 11.0247 2.26318C10.8335 2.44051 10.7261 2.68101 10.7261 2.93179C10.7261 3.18256 10.8335 3.42306 11.0247 3.60039C11.216 3.77771 11.4753 3.87733 11.7457 3.87733ZM17.863 10.4961C18.1335 10.4961 18.3928 10.3965 18.584 10.2192C18.7752 10.0419 18.8826 9.80137 18.8826 9.5506C18.8826 9.29982 18.7752 9.05932 18.584 8.882C18.3928 8.70467 18.1335 8.60505 17.863 8.60505C17.5926 8.60505 17.3333 8.70467 17.1421 8.882C16.9509 9.05932 16.8435 9.29982 16.8435 9.5506C16.8435 9.80137 16.9509 10.0419 17.1421 10.2192C17.3333 10.3965 17.5926 10.4961 17.863 10.4961ZM11.7457 17.115C12.0161 17.115 12.2754 17.0153 12.4666 16.838C12.6578 16.6607 12.7652 16.4202 12.7652 16.1694C12.7652 15.9186 12.6578 15.6781 12.4666 15.5008C12.2754 15.3235 12.0161 15.2239 11.7457 15.2239C11.4753 15.2239 11.216 15.3235 11.0247 15.5008C10.8335 15.6781 10.7261 15.9186 10.7261 16.1694C10.7261 16.4202 10.8335 16.6607 11.0247 16.838C11.216 17.0153 11.4753 17.115 11.7457 17.115Z" fill="#3E4958"/>
</g>
<defs>
<clipPath id="clip0_142_5131">
<rect width="24.4694" height="22.6931" fill="white" transform="translate(0.530518 0.0928345)"/>
</clipPath>
</defs>
</svg>
