<?xml version="1.0" standalone="no"?><!DOCTYPE svg PUBLIC "-//W3C//DTD SVG 1.1//EN" "http://www.w3.org/Graphics/SVG/1.1/DTD/svg11.dtd"><svg t="1749376502225" class="icon" viewBox="0 0 1024 1024" version="1.1" xmlns="http://www.w3.org/2000/svg" p-id="5199" xmlns:xlink="http://www.w3.org/1999/xlink" width="128" height="128"><path d="M213.561727 512.080958a296.85528 296.85528 0 0 1 15.679539-94.717218L53.726422 286.071597a504.145191 504.145191 0 0 0 0 451.73073l175.386848-131.516137a295.991305 295.991305 0 0 1-15.359549-94.26923" fill="#FBBC05" p-id="5200"></path><path d="M521.87267 208.825866a305.68702 305.68702 0 0 1 191.99436 67.198026l151.771542-148.411641A527.536504 527.536504 0 0 0 53.758421 284.151653l175.418847 131.356141a306.774988 306.774988 0 0 1 292.535407-206.713927" fill="#EA4335" p-id="5201"></path><path d="M521.87267 815.30405a307.126978 307.126978 0 0 1-292.631404-206.713927l-175.514844 131.324142a521.136692 521.136692 0 0 0 468.146248 284.023657 503.121221 503.121221 0 0 0 339.830017-127.100267l-166.7791-126.108295a327.894368 327.894368 0 0 1-173.210912 44.57469" fill="#34A853" p-id="5202"></path><path d="M1023.457936 513.744909a415.66779 415.66779 0 0 0-11.90365-92.669278H525.296569v197.018212h279.735783a229.561257 229.561257 0 0 1-106.524871 152.411523l166.619106 126.140295a502.033253 502.033253 0 0 0 158.075356-382.900752" fill="#4285F4" p-id="5203"></path></svg>