<svg width="43" height="42" viewBox="0 0 43 42" fill="none" xmlns="http://www.w3.org/2000/svg">
<path d="M26.6431 5.32865C26.6431 7.81157 24.9449 9.89786 22.6466 10.4894V24.0418C24.9449 24.2636 26.6431 25.0459 26.6431 25.977C26.6431 27.0806 24.2574 27.9753 21.3145 27.9753C18.3716 27.9753 15.9858 27.0806 15.9858 25.977C15.9858 25.0459 17.684 24.2636 19.9823 24.0418V10.4894C17.684 9.89786 15.9858 7.81157 15.9858 5.32865C15.9858 2.38573 18.3716 3.05176e-05 21.3145 3.05176e-05C24.2574 3.05176e-05 26.6431 2.38573 26.6431 5.32865Z" fill="#4A4A4A"/>
<path d="M0 25.7502V30.3251C0 31.3343 0.570168 32.2568 1.47279 32.7081L18.9314 41.4375C20.4316 42.1875 22.1973 42.1875 23.6975 41.4375L41.1561 32.7081C42.0588 32.2568 42.6289 31.3343 42.6289 30.3251V25.7502C42.6289 25.4837 42.4701 25.2429 42.2252 25.138L25.3109 17.889V20.5374L39.2372 26.34C39.509 26.4533 39.5109 26.8376 39.2403 26.9535L23.4135 33.7365C22.0731 34.3109 20.5558 34.3109 19.2154 33.7365L3.38865 26.9535C3.11803 26.8376 3.11998 26.4533 3.39175 26.34L17.318 20.5374L17.2838 17.9036L0.403696 25.138C0.158791 25.2429 0 25.4837 0 25.7502Z" fill="#4A4A4A"/>
</svg>
